<svg width="32.000000" height="32.000000" viewBox="0 0 32 32" fill="none" xmlns="http://www.w3.org/2000/svg" xmlns:xlink="http://www.w3.org/1999/xlink">
	<desc>
			Created with Pixso.
	</desc>
	<defs/>
	<rect id="fluent-emoji-high-contrast:chocolate-bar" width="32.000000" height="32.000000" fill="#FFFFFF" fill-opacity="0"/>
	<path id="Vector" d="M13.822 2.41296L21.349 9.94897L21.429 9.86902C21.5867 9.71472 21.7978 9.6272 22.0184 9.62476C22.239 9.62231 22.452 9.7052 22.613 9.85596L22.619 9.86206L23.486 10.729C23.791 11.0341 23.801 11.499 23.569 11.823L23.565 11.83L23.422 12.022L29.582 18.182C30.132 18.7321 30.132 19.6121 29.582 20.162L20.152 29.592C19.602 30.142 18.722 30.142 18.172 29.592L13.725 25.145C13.6512 25.238 13.5584 25.3145 13.4529 25.3691C13.3475 25.4238 13.2316 25.4556 13.1129 25.4623C12.9943 25.469 12.8756 25.4506 12.7646 25.4081C12.6536 25.3656 12.5529 25.3002 12.469 25.2161L9.86902 22.616C9.71472 22.4584 9.6272 22.2472 9.62476 22.0266C9.62238 21.806 9.7052 21.593 9.85602 21.432L9.862 21.425L9.93903 21.349L2.41199 13.822C1.862 13.272 1.862 12.392 2.41199 11.842L11.842 2.41199C12.392 1.86206 13.272 1.86206 13.822 2.41199L13.822 2.41296ZM20.404 10.8931L18.648 9.13806C18.5928 9.08105 18.5268 9.03589 18.4537 9.005C18.3807 8.974 18.3023 8.95813 18.223 8.95813C18.1437 8.95813 18.0652 8.974 17.9922 9.005C17.9193 9.03589 17.8532 9.08105 17.798 9.13806L14.218 12.718C14.1613 12.7743 14.1163 12.8413 14.0856 12.9152C14.0548 12.9889 14.039 13.0681 14.039 13.1481C14.039 13.2279 14.0548 13.3071 14.0856 13.3809C14.1163 13.4547 14.1613 13.5217 14.218 13.578L15.967 15.327L16.577 14.717L15.012 13.152L18.222 9.93201L19.791 11.506L20.404 10.8931ZM15.328 15.965L13.574 14.2111C13.5188 14.1541 13.4528 14.1089 13.3798 14.078C13.3068 14.047 13.2283 14.0311 13.149 14.0311C13.0698 14.0311 12.9913 14.047 12.9183 14.078C12.8453 14.1089 12.7792 14.1541 12.724 14.2111L9.14398 17.791L9.13904 17.796L9.13403 17.801C8.89398 18.031 8.89398 18.411 9.13403 18.651L10.886 20.403L11.502 19.787L9.93201 18.223L13.152 15.0131L14.716 16.576L15.328 15.965ZM8.82202 8.19299L12.402 11.7731C12.642 12.0131 13.022 12.0131 13.252 11.7631L16.832 8.18298C16.8889 8.12878 16.9342 8.06372 16.9651 7.99146C16.996 7.91931 17.012 7.84155 17.012 7.76306L17.022 7.76306C17.022 7.61304 16.962 7.453 16.842 7.33301L13.262 3.75305C13.2057 3.69617 13.1388 3.651 13.065 3.62024C12.9911 3.58948 12.912 3.57361 12.832 3.57361C12.752 3.57361 12.6729 3.58948 12.5991 3.62024C12.5253 3.651 12.4583 3.69617 12.402 3.75305L8.82202 7.34302C8.58203 7.573 8.58203 7.953 8.82202 8.19299ZM3.75201 13.2631L7.33203 16.843C7.57202 17.083 7.95203 17.083 8.18201 16.843L11.762 13.2631C11.8201 13.2076 11.8661 13.1409 11.8971 13.0669C11.9281 12.9929 11.9434 12.9132 11.942 12.833L11.952 12.833C11.952 12.673 11.892 12.5231 11.772 12.403L8.19202 8.823C8.13684 8.76611 8.07074 8.72083 7.99774 8.68994C7.92474 8.65906 7.84631 8.64307 7.76703 8.64307C7.68774 8.64307 7.60925 8.65906 7.53625 8.68994C7.46326 8.72083 7.39722 8.76611 7.34204 8.823L3.75201 12.413C3.51202 12.6431 3.51202 13.0231 3.75201 13.2631ZM10.685 22.017L13.047 24.38L22.683 11.34L22.028 10.6851L10.685 22.017Z" fill="#000000" fill-opacity="1.000000" fill-rule="nonzero"/>
	<path id="Vector" d="M13.822 2.41296L21.349 9.94897L21.429 9.86902C21.5867 9.71472 21.7978 9.6272 22.0184 9.62476C22.239 9.62231 22.452 9.7052 22.613 9.85596L22.619 9.86206L23.486 10.729C23.791 11.0341 23.801 11.499 23.569 11.823L23.565 11.83L23.422 12.022L29.582 18.182C30.132 18.7321 30.132 19.6121 29.582 20.162L20.152 29.592C19.602 30.142 18.722 30.142 18.172 29.592L13.725 25.145C13.6512 25.238 13.5584 25.3145 13.4529 25.3691C13.3475 25.4238 13.2316 25.4556 13.1129 25.4623C12.9943 25.469 12.8756 25.4506 12.7646 25.4081C12.6536 25.3656 12.5529 25.3002 12.469 25.2161L9.86902 22.616C9.71472 22.4584 9.6272 22.2472 9.62476 22.0266C9.62238 21.806 9.7052 21.593 9.85602 21.432L9.862 21.425L9.93903 21.349L2.41199 13.822C1.862 13.272 1.862 12.392 2.41199 11.842L11.842 2.41199C12.392 1.86206 13.272 1.86206 13.822 2.41199L13.822 2.41296ZM20.404 10.8931L18.648 9.13806C18.5928 9.08105 18.5268 9.03589 18.4537 9.005C18.3807 8.974 18.3023 8.95813 18.223 8.95813C18.1437 8.95813 18.0652 8.974 17.9922 9.005C17.9193 9.03589 17.8532 9.08105 17.798 9.13806L14.218 12.718C14.1613 12.7743 14.1163 12.8413 14.0856 12.9152C14.0548 12.9889 14.039 13.0681 14.039 13.1481C14.039 13.2279 14.0548 13.3071 14.0856 13.3809C14.1163 13.4547 14.1613 13.5217 14.218 13.578L15.967 15.327L16.577 14.717L15.012 13.152L18.222 9.93201L19.791 11.506L20.404 10.8931ZM15.328 15.965L13.574 14.2111C13.5188 14.1541 13.4528 14.1089 13.3798 14.078C13.3068 14.047 13.2283 14.0311 13.149 14.0311C13.0698 14.0311 12.9913 14.047 12.9183 14.078C12.8453 14.1089 12.7792 14.1541 12.724 14.2111L9.14398 17.791L9.13904 17.796L9.13403 17.801C8.89398 18.031 8.89398 18.411 9.13403 18.651L10.886 20.403L11.502 19.787L9.93201 18.223L13.152 15.0131L14.716 16.576L15.328 15.965ZM8.82202 8.19299L12.402 11.7731C12.642 12.0131 13.022 12.0131 13.252 11.7631L16.832 8.18298C16.8889 8.12878 16.9342 8.06372 16.9651 7.99146C16.996 7.91931 17.012 7.84155 17.012 7.76306L17.022 7.76306C17.022 7.61304 16.962 7.453 16.842 7.33301L13.262 3.75305C13.2057 3.69617 13.1388 3.651 13.065 3.62024C12.9911 3.58948 12.912 3.57361 12.832 3.57361C12.752 3.57361 12.6729 3.58948 12.5991 3.62024C12.5253 3.651 12.4583 3.69617 12.402 3.75305L8.82202 7.34302C8.58203 7.573 8.58203 7.953 8.82202 8.19299ZM3.75201 13.2631L7.33203 16.843C7.57202 17.083 7.95203 17.083 8.18201 16.843L11.762 13.2631C11.8201 13.2076 11.8661 13.1409 11.8971 13.0669C11.9281 12.9929 11.9434 12.9132 11.942 12.833L11.952 12.833C11.952 12.673 11.892 12.5231 11.772 12.403L8.19202 8.823C8.13684 8.76611 8.07074 8.72083 7.99774 8.68994C7.92474 8.65906 7.84631 8.64307 7.76703 8.64307C7.68774 8.64307 7.60925 8.65906 7.53625 8.68994C7.46326 8.72083 7.39722 8.76611 7.34204 8.823L3.75201 12.413C3.51202 12.6431 3.51202 13.0231 3.75201 13.2631ZM10.685 22.017L13.047 24.38L22.683 11.34L22.028 10.6851L10.685 22.017Z" fill="#FD9222" fill-opacity="1.000000" fill-rule="nonzero"/>
</svg>
