<svg width="32.000000" height="32.000000" viewBox="0 0 32 32" fill="none" xmlns="http://www.w3.org/2000/svg" xmlns:xlink="http://www.w3.org/1999/xlink">
	<desc>
			Created with Pixso.
	</desc>
	<defs>
		<clipPath id="clip1_40">
			<rect id="Coin" width="32.000000" height="32.000000" fill="white" fill-opacity="0"/>
		</clipPath>
	</defs>
	<rect id="Coin" width="32.000000" height="32.000000" fill="#FFFFFF" fill-opacity="0"/>
	<g clip-path="url(#clip1_40)">
		<path id="Vector" d="M16 2.66675C8.66666 2.66675 2.66666 8.66675 2.66666 16.0001C2.66666 23.3334 8.66666 29.3334 16 29.3334C23.3333 29.3334 29.3333 23.3334 29.3333 16.0001C29.3333 8.66675 23.3333 2.66675 16 2.66675ZM16 26.6667C10.1333 26.6667 5.33333 21.8667 5.33333 16.0001C5.33333 10.1334 10.1333 5.33337 16 5.33337C21.8667 5.33337 26.6667 10.1334 26.6667 16.0001C26.6667 21.8667 21.8667 26.6667 16 26.6667Z" fill="#FD9222" fill-opacity="1.000000" fill-rule="nonzero"/>
		<path id="Vector" d="M17.7333 14.6666L14.2667 14.6666C13.6 14.6666 13.0667 14.1333 13.0667 13.4667C13.0667 12.7999 13.6 12.2666 14.2667 12.2666L19.2 12.2666C20 12.2666 20.5333 11.7333 20.5333 10.9333C20.5333 10.1333 20 9.59998 19.2 9.59998L17.3333 9.59998L17.3333 8.40002C17.3333 7.59998 16.8 7.06665 16 7.06665C15.2 7.06665 14.6667 7.59998 14.6667 8.40002L14.6667 9.59998L14.2667 9.59998C12.1333 9.59998 10.4 11.3334 10.4 13.4667C10.4 15.6 12.1333 17.3334 14.2667 17.3334L17.6 17.3334C18.2667 17.3334 18.8 17.8667 18.8 18.5333C18.8 19.2 18.2667 19.7333 17.6 19.7333L12.6667 19.7333C11.8667 19.7333 11.3333 20.2666 11.3333 21.0667C11.3333 21.8667 11.8667 22.4 12.6667 22.4L14.6667 22.4L14.6667 23.6C14.6667 24.4 15.2 24.9333 16 24.9333C16.8 24.9333 17.3333 24.4 17.3333 23.6L17.3333 22.4L17.7333 22.4C19.8667 22.4 21.6 20.6666 21.6 18.5333C21.6 16.4 19.8667 14.6666 17.7333 14.6666Z" fill="#FD9222" fill-opacity="1.000000" fill-rule="nonzero"/>
	</g>
</svg>
