<svg aria-hidden="true" style="position: absolute; width: 0; height: 0; overflow: hidden;" version="1.1" xmlns="http://www.w3.org/2000/svg" xmlns:xlink="http://www.w3.org/1999/xlink">
<defs>
<symbol id="icon-burger" viewBox="0 0 45 32">
<path stroke-linejoin="round" stroke-linecap="round" stroke-miterlimit="4" stroke-width="4" d="M2.673 2.667h40"></path>
<path stroke-linejoin="round" stroke-linecap="round" stroke-miterlimit="4" stroke-width="4" d="M2.667 16h39.99"></path>
<path stroke-linejoin="round" stroke-linecap="round" stroke-miterlimit="4" stroke-width="4" d="M2.673 29.333h39.983"></path>
</symbol>
<symbol id="icon-icon-cart" viewBox="0 0 39 32">
<path stroke-linejoin="round" stroke-linecap="round" stroke-miterlimit="4" stroke-width="3.4286" d="M8 6.857h28.571l-3.624 12.684c-0.561 1.963-2.354 3.316-4.395 3.316h-15.317c-2.329 0-4.286-1.751-4.543-4.067l-1.834-16.505h-4.571"></path>
<path d="M12.571 32c1.262 0 2.286-1.023 2.286-2.286s-1.023-2.286-2.286-2.286c-1.262 0-2.286 1.023-2.286 2.286s1.023 2.286 2.286 2.286z"></path>
<path d="M30.857 32c1.262 0 2.286-1.023 2.286-2.286s-1.023-2.286-2.286-2.286c-1.262 0-2.286 1.023-2.286 2.286s1.023 2.286 2.286 2.286z"></path>
</symbol>
<symbol id="icon-menu-arrow" viewBox="0 0 50 32">
<path stroke-linejoin="miter" stroke-linecap="butt" stroke-miterlimit="4" stroke-width="2.2857" d="M5.162 5.162c0.716-0.716 1.836-0.781 2.626-0.195l0.226 0.195 17.397 17.397 17.397-17.397c0.716-0.716 1.836-0.781 2.626-0.195l0.226 0.195c0.716 0.716 0.781 1.836 0.195 2.626l-0.195 0.226-18.824 18.823c-0.716 0.716-1.836 0.781-2.626 0.195l-0.226-0.195-18.823-18.823c-0.788-0.788-0.788-2.065 0-2.852z"></path>
</symbol>
<symbol id="icon-search-icon" viewBox="0 0 32 32">
<path stroke-linejoin="round" stroke-linecap="round" stroke-miterlimit="4" stroke-width="2.6667" d="M13.63 25.481c6.546 0 11.852-5.306 11.852-11.852s-5.306-11.852-11.852-11.852c-6.546 0-11.852 5.306-11.852 11.852s5.306 11.852 11.852 11.852z"></path>
<path stroke-linejoin="round" stroke-linecap="round" stroke-miterlimit="4" stroke-width="2.6667" d="M30.222 30.222l-8.296-8.296"></path>
</symbol>
<symbol id="icon-ellipse" viewBox="0 0 32 32">
<path d="M32 16c0 8.837-7.163 16-16 16s-16-7.163-16-16c0-8.837 7.163-16 16-16s16 7.163 16 16z"></path>
</symbol>
</defs>
</svg>
